{
  "accessors": [
    {
      "bufferView": 2,
      "componentType": 5126,
      "count": 65532,
      "max": [
        4.862277507781982,
        0.25469541549682617,
        4.962227821350098
      ],
      "min": [
        -5.072619915008545,
        -1.4253796339035034,
        -5.024191856384277
      ],
      "type": "VEC3"
    },
    {
      "bufferView": 2,
      "byteOffset": 786384,
      "componentType": 5126,
      "count": 65532,
      "max": [
        0.988649308681488,
        0.9999978542327881,
        0.999503493309021
      ],
      "min": [
        -0.9999111294746399,
        -0.6899780631065369,
        -0.9974616765975952
      ],
      "type": "VEC3"
    },
    {
      "bufferView": 1,
      "componentType": 5126,
      "count": 65532,
      "max": [
        0.9815501570701599,
        0.9996394515037537
      ],
      "min": [
        0.0004111148591618985,
        0.0030118227005004883
      ],
      "type": "VEC2"
    },
    {
      "bufferView": 0,
      "componentType": 5125,
      "count": 312891,
      "type": "SCALAR"
    },
    {
      "bufferView": 2,
      "byteOffset": 1572768,
      "componentType": 5126,
      "count": 65532,
      "max": [
        4.9177374839782715,
        0.27961307764053345,
        4.963835716247559
      ],
      "min": [
        -5.053421497344971,
        -1.5503309965133667,
        -4.999481678009033
      ],
      "type": "VEC3"
    },
    {
      "bufferView": 2,
      "byteOffset": 2359152,
      "componentType": 5126,
      "count": 65532,
      "max": [
        0.9998408555984497,
        0.9999949336051941,
        0.9999299645423889
      ],
      "min": [
        -0.9999111294746399,
        -0.9377622604370117,
        -0.9887988567352295
      ],
      "type": "VEC3"
    },
    {
      "bufferView": 1,
      "byteOffset": 524256,
      "componentType": 5126,
      "count": 65532,
      "max": [
        0.9996292591094971,
        0.9995928406715393
      ],
      "min": [
        0.0004387935623526573,
        0.0005279183387756348
      ],
      "type": "VEC2"
    },
    {
      "bufferView": 0,
      "byteOffset": 1251564,
      "componentType": 5125,
      "count": 257802,
      "type": "SCALAR"
    },
    {
      "bufferView": 2,
      "byteOffset": 3145536,
      "componentType": 5126,
      "count": 45277,
      "max": [
        4.910740852355957,
        0.2887849807739258,
        4.975808620452881
      ],
      "min": [
        -5.072619915008545,
        -1.5614430904388428,
        -5.024191856384277
      ],
      "type": "VEC3"
    },
    {
      "bufferView": 2,
      "byteOffset": 3688860,
      "componentType": 5126,
      "count": 45277,
      "max": [
        0.9999290108680725,
        0.9999843835830688,
        0.9999268054962158
      ],
      "min": [
        -0.9996941685676575,
        -0.9914512634277344,
        -0.9999749064445496
      ],
      "type": "VEC3"
    },
    {
      "bufferView": 1,
      "byteOffset": 1048512,
      "componentType": 5126,
      "count": 45277,
      "max": [
        0.9996380805969238,
        0.9996449947357178
      ],
      "min": [
        0.00035296319401822984,
        0.0005279183387756348
      ],
      "type": "VEC2"
    },
    {
      "bufferView": 0,
      "byteOffset": 2282772,
      "componentType": 5125,
      "count": 88245,
      "type": "SCALAR"
    }
  ],
  "asset": {
    "extras": {
      "author": "Michaels 3D Stuff (https://sketchfab.com/Michaels3dstuff)",
      "license": "CC-BY-4.0 (http://creativecommons.org/licenses/by/4.0/)",
      "source": "https://sketchfab.com/3d-models/18th-hole-old-course-st-andrews-links-6b699b69b30b4e169aa911c78cd80bd1",
      "title": "18th hole, Old Course, St Andrews Links"
    },
    "generator": "Sketchfab-13.37.1",
    "version": "2.0"
  },
  "bufferViews": [
    {
      "buffer": 0,
      "byteLength": 2635752,
      "name": "floatBufferViews",
      "target": 34963
    },
    {
      "buffer": 0,
      "byteLength": 1410728,
      "byteOffset": 2635752,
      "byteStride": 8,
      "name": "floatBufferViews",
      "target": 34962
    },
    {
      "buffer": 0,
      "byteLength": 4232184,
      "byteOffset": 4046480,
      "byteStride": 12,
      "name": "floatBufferViews",
      "target": 34962
    }
  ],
  "buffers": [
    {
      "byteLength": 8278664,
      "uri": "scene.bin"
    }
  ],
  "extensionsUsed": [
    "KHR_materials_unlit"
  ],
  "images": [
    {
      "uri": "textures/Material0_baseColor.jpeg"
    }
  ],
  "materials": [
    {
      "doubleSided": true,
      "extensions": {
        "KHR_materials_unlit": {}
      },
      "name": "Material0",
      "pbrMetallicRoughness": {
        "baseColorTexture": {
          "index": 0
        },
        "metallicFactor": 0.0
      }
    }
  ],
  "meshes": [
    {
      "name": "Stereo textured mesh_Material0_0",
      "primitives": [
        {
          "attributes": {
            "NORMAL": 1,
            "POSITION": 0,
            "TEXCOORD_0": 2
          },
          "indices": 3,
          "material": 0,
          "mode": 4
        }
      ]
    },
    {
      "name": "Stereo textured mesh_Material0_0",
      "primitives": [
        {
          "attributes": {
            "NORMAL": 5,
            "POSITION": 4,
            "TEXCOORD_0": 6
          },
          "indices": 7,
          "material": 0,
          "mode": 4
        }
      ]
    },
    {
      "name": "Stereo textured mesh_Material0_0",
      "primitives": [
        {
          "attributes": {
            "NORMAL": 9,
            "POSITION": 8,
            "TEXCOORD_0": 10
          },
          "indices": 11,
          "material": 0,
          "mode": 4
        }
      ]
    }
  ],
  "nodes": [
    {
      "children": [
        1
      ],
      "matrix": [
        0.9997875094413757,
        -0.020614152774214745,
        -6.311984884591558e-18,
        0.0,
        -0.020614152774214745,
        -0.9997875094413757,
        -1.975757686076553e-16,
        0.0,
        5.204170427930421e-18,
        1.9758229340832711e-16,
        -1.0,
        0.0,
        0.0,
        0.0,
        0.0,
        1.0
      ],
      "name": "Sketchfab_model"
    },
    {
      "children": [
        2
      ],
      "matrix": [
        1.0,
        0.0,
        0.0,
        0.0,
        0.0,
        -1.0,
        0.0,
        0.0,
        0.0,
        0.0,
        -1.0,
        0.0,
        0.0,
        0.0,
        0.0,
        1.0
      ],
      "name": "sketchfabTemp.obj.fbx"
    },
    {
      "children": [
        3
      ],
      "name": "RootNode"
    },
    {
      "children": [
        4,
        5,
        6
      ],
      "name": "Stereo textured mesh"
    },
    {
      "mesh": 0,
      "name": "Stereo textured mesh_Material0_0"
    },
    {
      "mesh": 1,
      "name": "Stereo textured mesh_Material0_0"
    },
    {
      "mesh": 2,
      "name": "Stereo textured mesh_Material0_0"
    }
  ],
  "samplers": [
    {
      "magFilter": 9729,
      "minFilter": 9987,
      "wrapS": 10497,
      "wrapT": 10497
    }
  ],
  "scene": 0,
  "scenes": [
    {
      "name": "Sketchfab_Scene",
      "nodes": [
        0
      ]
    }
  ],
  "textures": [
    {
      "sampler": 0,
      "source": 0
    }
  ]
}
